<mxfile host="app.diagrams.net" modified="2024-04-20T16:21:38.160Z" agent="Mozilla/5.0 (X11; Ubuntu; Linux x86_64; rv:125.0) Gecko/20100101 Firefox/125.0" etag="w3pCnahKZtARXOAo5yJX" version="24.2.7" type="github">
  <diagram name="Page-1" id="vFwo0hFjRwJ0brIeQsAi">
    <mxGraphModel dx="667" dy="324" grid="1" gridSize="10" guides="1" tooltips="1" connect="1" arrows="1" fold="1" page="1" pageScale="1" pageWidth="850" pageHeight="1100" math="0" shadow="0">
      <root>
        <mxCell id="0" />
        <mxCell id="1" parent="0" />
        <mxCell id="PVeV4i3x_uw7YTpKDgrW-12" style="edgeStyle=orthogonalEdgeStyle;rounded=0;orthogonalLoop=1;jettySize=auto;html=1;curved=1;strokeColor=#ffbe6f;strokeWidth=2;" edge="1" parent="1" source="PVeV4i3x_uw7YTpKDgrW-4" target="PVeV4i3x_uw7YTpKDgrW-11">
          <mxGeometry relative="1" as="geometry">
            <Array as="points">
              <mxPoint x="770" y="340" />
            </Array>
          </mxGeometry>
        </mxCell>
        <mxCell id="PVeV4i3x_uw7YTpKDgrW-4" value="&lt;div&gt;Turning&lt;/div&gt;&lt;div&gt;PID.compute()&lt;br&gt;&lt;/div&gt;&lt;div&gt;e = PID.geterror()&lt;br&gt;&lt;/div&gt;" style="ellipse;whiteSpace=wrap;html=1;" vertex="1" parent="1">
          <mxGeometry x="520" y="300" width="120" height="80" as="geometry" />
        </mxCell>
        <mxCell id="PVeV4i3x_uw7YTpKDgrW-5" value="&lt;div&gt;Stopped&lt;/div&gt;stop()" style="ellipse;whiteSpace=wrap;html=1;" vertex="1" parent="1">
          <mxGeometry x="340" y="230" width="120" height="80" as="geometry" />
        </mxCell>
        <mxCell id="PVeV4i3x_uw7YTpKDgrW-6" style="edgeStyle=orthogonalEdgeStyle;rounded=0;orthogonalLoop=1;jettySize=auto;html=1;curved=1;entryX=0.083;entryY=0.15;entryDx=0;entryDy=0;strokeColor=#ffbe6f;entryPerimeter=0;strokeWidth=2;" edge="1" parent="1" source="PVeV4i3x_uw7YTpKDgrW-5" target="PVeV4i3x_uw7YTpKDgrW-5">
          <mxGeometry relative="1" as="geometry">
            <mxPoint x="300" y="210" as="sourcePoint" />
            <mxPoint x="330" y="270" as="targetPoint" />
            <Array as="points">
              <mxPoint x="400" y="210" />
              <mxPoint x="420" y="210" />
              <mxPoint x="420" y="150" />
              <mxPoint x="350" y="150" />
            </Array>
          </mxGeometry>
        </mxCell>
        <mxCell id="PVeV4i3x_uw7YTpKDgrW-7" value="desired_motion_state = Stopped" style="text;html=1;align=center;verticalAlign=middle;whiteSpace=wrap;rounded=0;" vertex="1" parent="1">
          <mxGeometry x="290" y="120" width="220" height="30" as="geometry" />
        </mxCell>
        <mxCell id="PVeV4i3x_uw7YTpKDgrW-14" style="edgeStyle=orthogonalEdgeStyle;rounded=0;orthogonalLoop=1;jettySize=auto;html=1;entryX=0.5;entryY=1;entryDx=0;entryDy=0;curved=1;strokeColor=#ffbe6f;strokeWidth=2;" edge="1" parent="1" source="PVeV4i3x_uw7YTpKDgrW-11" target="PVeV4i3x_uw7YTpKDgrW-4">
          <mxGeometry relative="1" as="geometry">
            <Array as="points">
              <mxPoint x="760" y="460" />
              <mxPoint x="580" y="460" />
            </Array>
          </mxGeometry>
        </mxCell>
        <mxCell id="PVeV4i3x_uw7YTpKDgrW-11" value="&lt;div&gt;Turn&lt;/div&gt;&lt;div&gt;turn()&lt;br&gt;&lt;/div&gt;" style="ellipse;whiteSpace=wrap;html=1;" vertex="1" parent="1">
          <mxGeometry x="670" y="370" width="120" height="80" as="geometry" />
        </mxCell>
        <mxCell id="PVeV4i3x_uw7YTpKDgrW-16" style="edgeStyle=orthogonalEdgeStyle;rounded=0;orthogonalLoop=1;jettySize=auto;html=1;entryX=0.333;entryY=0;entryDx=0;entryDy=0;entryPerimeter=0;curved=1;strokeColor=#ffbe6f;strokeWidth=2;" edge="1" parent="1" source="PVeV4i3x_uw7YTpKDgrW-5" target="PVeV4i3x_uw7YTpKDgrW-4">
          <mxGeometry relative="1" as="geometry" />
        </mxCell>
        <mxCell id="PVeV4i3x_uw7YTpKDgrW-17" value="desired_motion_state = Turning" style="text;html=1;align=center;verticalAlign=middle;whiteSpace=wrap;rounded=0;" vertex="1" parent="1">
          <mxGeometry x="450" y="250" width="220" height="30" as="geometry" />
        </mxCell>
        <mxCell id="PVeV4i3x_uw7YTpKDgrW-19" value="abs(e) &amp;gt; 1" style="text;html=1;align=center;verticalAlign=middle;whiteSpace=wrap;rounded=0;" vertex="1" parent="1">
          <mxGeometry x="660" y="310" width="88" height="30" as="geometry" />
        </mxCell>
        <mxCell id="PVeV4i3x_uw7YTpKDgrW-20" value="abs(e) &amp;gt; 1" style="text;html=1;align=center;verticalAlign=middle;whiteSpace=wrap;rounded=0;" vertex="1" parent="1">
          <mxGeometry x="600" y="460" width="88" height="30" as="geometry" />
        </mxCell>
        <mxCell id="PVeV4i3x_uw7YTpKDgrW-26" value="&lt;div&gt;MoveFoward&lt;/div&gt;&lt;div&gt;goforward()&lt;br&gt;&lt;/div&gt;" style="ellipse;whiteSpace=wrap;html=1;" vertex="1" parent="1">
          <mxGeometry x="110" y="415" width="120" height="80" as="geometry" />
        </mxCell>
        <mxCell id="PVeV4i3x_uw7YTpKDgrW-28" value="desired_motion_state = MoveForward" style="text;html=1;align=center;verticalAlign=middle;whiteSpace=wrap;rounded=0;" vertex="1" parent="1">
          <mxGeometry x="40" y="325" width="220" height="30" as="geometry" />
        </mxCell>
        <mxCell id="PVeV4i3x_uw7YTpKDgrW-29" value="" style="edgeStyle=orthogonalEdgeStyle;rounded=0;orthogonalLoop=1;jettySize=auto;html=1;entryX=0.5;entryY=1;entryDx=0;entryDy=0;curved=1;strokeColor=#ffbe6f;strokeWidth=2;" edge="1" parent="1" source="PVeV4i3x_uw7YTpKDgrW-4" target="PVeV4i3x_uw7YTpKDgrW-5">
          <mxGeometry relative="1" as="geometry">
            <mxPoint x="560" y="378" as="sourcePoint" />
            <mxPoint x="460" y="460" as="targetPoint" />
            <Array as="points">
              <mxPoint x="560" y="480" />
              <mxPoint x="400" y="480" />
            </Array>
          </mxGeometry>
        </mxCell>
        <mxCell id="PVeV4i3x_uw7YTpKDgrW-30" value="abs(e) &amp;lt; 1" style="text;html=1;align=center;verticalAlign=middle;whiteSpace=wrap;rounded=0;" vertex="1" parent="1">
          <mxGeometry x="430" y="440" width="90" height="30" as="geometry" />
        </mxCell>
        <mxCell id="PVeV4i3x_uw7YTpKDgrW-31" style="edgeStyle=orthogonalEdgeStyle;rounded=0;orthogonalLoop=1;jettySize=auto;html=1;entryX=0.333;entryY=-0.037;entryDx=0;entryDy=0;entryPerimeter=0;curved=1;strokeWidth=2;strokeColor=#ffbe6f;" edge="1" parent="1" source="PVeV4i3x_uw7YTpKDgrW-5" target="PVeV4i3x_uw7YTpKDgrW-26">
          <mxGeometry relative="1" as="geometry" />
        </mxCell>
        <mxCell id="PVeV4i3x_uw7YTpKDgrW-32" style="edgeStyle=orthogonalEdgeStyle;rounded=0;orthogonalLoop=1;jettySize=auto;html=1;curved=1;strokeWidth=2;strokeColor=#ffbe6f;" edge="1" parent="1">
          <mxGeometry relative="1" as="geometry">
            <mxPoint x="230" y="480" as="sourcePoint" />
            <mxPoint x="380" y="310" as="targetPoint" />
          </mxGeometry>
        </mxCell>
      </root>
    </mxGraphModel>
  </diagram>
</mxfile>
